<?xml version="1.0" encoding="utf-8"?>
<svg viewBox="82.1386 99.1508 37.1616 36.7104" xmlns="http://www.w3.org/2000/svg">
  <g id="SVGRepo_iconCarrier" transform="matrix(1, 0, 0, 1, 90.9943084716797, 105.444938659668)">
    <path d="M16.6582 9.28638C18.098 10.1862 18.8178 10.6361 19.0647 11.2122C19.2803 11.7152 19.2803 12.2847 19.0647 12.7878C18.8178 13.3638 18.098 13.8137 16.6582 14.7136L9.896 18.94C8.29805 19.9387 7.49907 20.4381 6.83973 20.385C6.26501 20.3388 5.73818 20.0469 5.3944 19.584C5 19.053 5 18.1108 5 16.2264V7.77357C5 5.88919 5 4.94701 5.3944 4.41598C5.73818 3.9531 6.26501 3.66111 6.83973 3.6149C7.49907 3.5619 8.29805 4.06126 9.896 5.05998L16.6582 9.28638Z"
          stroke="#0dbd00"
          stroke-width="2"
          fill="#0dbd00"
          stroke-linejoin="round"
    />
  </g>
  <g id="g-3" transform="matrix(0.01935500092804432, 0, 0, 0.019120000302791595, 82.13862609863283, 99.15079498291018)" style="">
    <path d="M960 0v213.333c411.627 0 746.667 334.934 746.667 746.667S1371.627 1706.667 960 1706.667 213.333 1371.733 213.333 960c0-197.013 78.4-382.507 213.334-520.747v254.08H640V106.667H53.333V320h191.04C88.64 494.08 0 720.96 0 960c0 529.28 430.613 960 960 960s960-430.72 960-960S1489.387 0 960 0"
          stroke="#0dbd00"
          fill="#0dbd00"
    />
  </g>
</svg>