<!DOCTYPE svg PUBLIC "-//W3C//DTD SVG 1.1//EN" "http://www.w3.org/Graphics/SVG/1.1/DTD/svg11.dtd">

<!-- Uploaded to: SVG Repo, www.svgrepo.com, Transformed by: SVG Repo Mixer Tools -->
<svg height="800px" width="800px" version="1.1" id="Layer_1" xmlns="http://www.w3.org/2000/svg" xmlns:xlink="http://www.w3.org/1999/xlink" viewBox="-81.2 -51.2 614.40 614.40" xml:space="preserve" fill="#378a00" stroke="#378a00" stroke-width="0.00512">

    <g id="SVGRepo_bgCarrier" stroke-width="0"/>


    <g id="SVGRepo_tracerCarrier" stroke-linecap="round" stroke-linejoin="round" stroke="#6e9a42" stroke-width="8.192">
        <path style="fill:#dbdbdb;" d="M339.576,426.804v-18.579c22.932,0,43.951-11.565,56.227-30.935l32.72-51.629 c5.118-8.076,5.421-17.898,0.813-26.274c-4.609-8.377-13.067-13.378-22.628-13.378H367.75v-18.579h38.957 c16.437,0,30.982,8.598,38.905,23s7.402,31.29-1.398,45.175l-32.72,51.629C395.795,412.012,368.909,426.804,339.576,426.804z"/> <polyline style="fill:#ededed;" points="338.256,481.91 390.289,199.641 64.987,199.641 117.02,481.91 "/> <polygon style="fill:#dbdbdb;" points="133.109,199.642 163.355,481.915 117.02,481.915 64.987,199.642 "/> <g> <path style="fill:#ededed;" d="M217.318,158.544c-0.549,0-1.105-0.048-1.663-0.15c-5.048-0.913-8.401-5.746-7.488-10.794 c2.016-11.157,7.456-17.867,12.255-23.786c5.16-6.365,8.888-10.964,8.888-21.195c0-10.218-3.727-14.813-8.884-21.174 c-5.809-7.163-13.037-16.077-13.037-32.891c0-16.801,7.227-25.714,13.034-32.877c2.799-3.452,5.217-6.434,6.813-10.098 c2.05-4.703,7.524-6.853,12.227-4.804c4.703,2.05,6.854,7.524,4.804,12.227c-2.606,5.98-6.223,10.44-9.414,14.376 c-5.159,6.363-8.886,10.959-8.886,21.176c0,10.227,3.728,14.825,8.889,21.188c5.806,7.16,13.034,16.072,13.034,32.876 c0,16.815-7.227,25.73-13.035,32.894c-4.043,4.987-7.235,8.925-8.404,15.391C225.636,155.394,221.725,158.544,217.318,158.544z"/> <path style="fill:#ededed;" d="M129.106,158.544c-0.546,0-1.101-0.048-1.657-0.149c-5.05-0.909-8.405-5.74-7.496-10.789 c2.011-11.161,7.449-17.873,12.247-23.793c5.157-6.365,8.884-10.963,8.884-21.192c0-10.22-3.724-14.815-8.881-21.176 c-5.805-7.161-13.03-16.076-13.03-32.888c0-16.801,7.222-25.715,13.026-32.877c2.797-3.452,5.213-6.433,6.81-10.097 c2.05-4.703,7.524-6.853,12.227-4.804c4.703,2.05,6.854,7.524,4.804,12.227c-2.606,5.977-6.219,10.436-9.407,14.371 c-5.156,6.363-8.882,10.96-8.882,21.181c0,10.229,3.727,14.826,8.884,21.19c5.804,7.16,13.026,16.071,13.026,32.874 c0,16.811-7.225,25.727-13.029,32.889c-4.04,4.987-7.232,8.925-8.396,15.391C137.428,155.391,133.515,158.544,129.106,158.544z"/> <path style="fill:#ededed;" d="M305.542,158.544c-0.549,0-1.105-0.048-1.663-0.15c-5.048-0.913-8.401-5.745-7.49-10.793 c2.018-11.157,7.456-17.867,12.256-23.786c5.16-6.365,8.888-10.964,8.888-21.195c0-10.218-3.727-14.813-8.886-21.174 c-5.808-7.163-13.037-16.077-13.037-32.891c0-16.801,7.227-25.714,13.034-32.877c2.8-3.452,5.217-6.434,6.815-10.098 c2.049-4.703,7.517-6.856,12.227-4.804c4.703,2.05,6.853,7.524,4.803,12.227c-2.606,5.98-6.223,10.44-9.414,14.376 c-5.159,6.363-8.887,10.959-8.887,21.175c0,10.227,3.729,14.825,8.889,21.187c5.806,7.16,13.034,16.072,13.034,32.877 c0,16.815-7.227,25.73-13.035,32.894c-4.043,4.987-7.235,8.925-8.403,15.391C313.861,155.394,309.949,158.544,305.542,158.544z"/> </g> <path style="fill:#9fc360;" d="M288.68,297.659v-17.925h-17.925c-57.525,0-104.157,46.633-104.157,104.157v17.925h17.925 C242.046,401.816,288.68,355.183,288.68,297.659z"/> <polygon style="fill:#609a42;" points="161.267,394.009 247.961,320.453 174.404,407.147 168.374,414.254 154.16,400.04 "/> <path style="fill:#ededed;" d="M313.647,475.717h80.834l0,0c0,20.035-16.242,36.277-36.277,36.277H97.074 c-20.035,0-36.277-16.242-36.277-36.277l0,0h226.497H313.647z"/> <path style="fill:#dbdbdb;" d="M131.964,512H97.074c-20.04,0-36.278-16.25-36.278-36.278h44.589 C105.385,495.75,117.287,512,131.964,512z"/>
    </g>

    <g id="SVGRepo_iconCarrier">
        <path style="fill:#dbdbdb;" d="M339.576,426.804v-18.579c22.932,0,43.951-11.565,56.227-30.935l32.72-51.629 c5.118-8.076,5.421-17.898,0.813-26.274c-4.609-8.377-13.067-13.378-22.628-13.378H367.75v-18.579h38.957 c16.437,0,30.982,8.598,38.905,23s7.402,31.29-1.398,45.175l-32.72,51.629C395.795,412.012,368.909,426.804,339.576,426.804z"/> <polyline style="fill:#ededed;" points="338.256,481.91 390.289,199.641 64.987,199.641 117.02,481.91 "/> <polygon style="fill:#dbdbdb;" points="133.109,199.642 163.355,481.915 117.02,481.915 64.987,199.642 "/> <g> <path style="fill:#ededed;" d="M217.318,158.544c-0.549,0-1.105-0.048-1.663-0.15c-5.048-0.913-8.401-5.746-7.488-10.794 c2.016-11.157,7.456-17.867,12.255-23.786c5.16-6.365,8.888-10.964,8.888-21.195c0-10.218-3.727-14.813-8.884-21.174 c-5.809-7.163-13.037-16.077-13.037-32.891c0-16.801,7.227-25.714,13.034-32.877c2.799-3.452,5.217-6.434,6.813-10.098 c2.05-4.703,7.524-6.853,12.227-4.804c4.703,2.05,6.854,7.524,4.804,12.227c-2.606,5.98-6.223,10.44-9.414,14.376 c-5.159,6.363-8.886,10.959-8.886,21.176c0,10.227,3.728,14.825,8.889,21.188c5.806,7.16,13.034,16.072,13.034,32.876 c0,16.815-7.227,25.73-13.035,32.894c-4.043,4.987-7.235,8.925-8.404,15.391C225.636,155.394,221.725,158.544,217.318,158.544z"/> <path style="fill:#ededed;" d="M129.106,158.544c-0.546,0-1.101-0.048-1.657-0.149c-5.05-0.909-8.405-5.74-7.496-10.789 c2.011-11.161,7.449-17.873,12.247-23.793c5.157-6.365,8.884-10.963,8.884-21.192c0-10.22-3.724-14.815-8.881-21.176 c-5.805-7.161-13.03-16.076-13.03-32.888c0-16.801,7.222-25.715,13.026-32.877c2.797-3.452,5.213-6.433,6.81-10.097 c2.05-4.703,7.524-6.853,12.227-4.804c4.703,2.05,6.854,7.524,4.804,12.227c-2.606,5.977-6.219,10.436-9.407,14.371 c-5.156,6.363-8.882,10.96-8.882,21.181c0,10.229,3.727,14.826,8.884,21.19c5.804,7.16,13.026,16.071,13.026,32.874 c0,16.811-7.225,25.727-13.029,32.889c-4.04,4.987-7.232,8.925-8.396,15.391C137.428,155.391,133.515,158.544,129.106,158.544z"/> <path style="fill:#ededed;" d="M305.542,158.544c-0.549,0-1.105-0.048-1.663-0.15c-5.048-0.913-8.401-5.745-7.49-10.793 c2.018-11.157,7.456-17.867,12.256-23.786c5.16-6.365,8.888-10.964,8.888-21.195c0-10.218-3.727-14.813-8.886-21.174 c-5.808-7.163-13.037-16.077-13.037-32.891c0-16.801,7.227-25.714,13.034-32.877c2.8-3.452,5.217-6.434,6.815-10.098 c2.049-4.703,7.517-6.856,12.227-4.804c4.703,2.05,6.853,7.524,4.803,12.227c-2.606,5.98-6.223,10.44-9.414,14.376 c-5.159,6.363-8.887,10.959-8.887,21.175c0,10.227,3.729,14.825,8.889,21.187c5.806,7.16,13.034,16.072,13.034,32.877 c0,16.815-7.227,25.73-13.035,32.894c-4.043,4.987-7.235,8.925-8.403,15.391C313.861,155.394,309.949,158.544,305.542,158.544z"/> </g> <path style="fill:#9fc360;" d="M288.68,297.659v-17.925h-17.925c-57.525,0-104.157,46.633-104.157,104.157v17.925h17.925 C242.046,401.816,288.68,355.183,288.68,297.659z"/> <polygon style="fill:#609a42;" points="161.267,394.009 247.961,320.453 174.404,407.147 168.374,414.254 154.16,400.04 "/> <path style="fill:#ededed;" d="M313.647,475.717h80.834l0,0c0,20.035-16.242,36.277-36.277,36.277H97.074 c-20.035,0-36.277-16.242-36.277-36.277l0,0h226.497H313.647z"/> <path style="fill:#dbdbdb;" d="M131.964,512H97.074c-20.04,0-36.278-16.25-36.278-36.278h44.589 C105.385,495.75,117.287,512,131.964,512z"/>
    </g>

</svg>